<svg version="1.2" xmlns="http://www.w3.org/2000/svg" viewBox="0 0 1080 1080" width="1080" height="1080">
	<title>New Project</title>
	<style>
		.s0 { fill: #ffce89 } 
		.s1 { fill: #ffc4e3 } 
		.s2 { fill: #ff4949 } 
		.s3 { fill: none;stroke: #000000;stroke-linecap: round;stroke-width: 12 } 
		.s4 { fill: #bde0fe;stroke: #000000;stroke-linecap: round;stroke-width: 12 } 
	</style>
	<g id="Folder 1">
		<path id="Shape 43" class="s0" d="m69.2 470.7v379.8l9.7 11.2 896.6 167.6 15.3-14v-377.1z"/>
		<path id="Shape 41" fill-rule="evenodd" class="s1" d="m350.9 303.5c-15.3 3.8-30.1 12.7-44.7 18.3-64.5 24.9-125 58.4-180.5 99.9-14.3 10.7-25.6 23.4-38 36.1-1.6 1.6-10.3 8.4-9.3 10.9 1.8 4.8 27.2 6.1 30.8 6.7 32.3 5.3 68.5 8.5 99.8 19.3 19.3 6.6 24.6 30.2 28.4 46.6 6.9 30.3 10.8 49.9 45.1 56.7 6.6 1.3 13.5 2 20.2 2.1 47.4 1.3 26.7-48.7 54.2-64.2 15.6-8.9 75.8 10.8 93.5 17.3 50.2 18.4 16.1 117.8 75.2 128.4 26.3 4.7 70.4-0.2 73-29.9 2.1-24 8.2-60.2 47.3-61 97.3-2.1 36.3 82.2 113.1 94.6 27.6 4.4 48.8-9.4 59.6-32.9 5.1-11.2 5.9-33.8 21.2-35.7 21.5-2.8 74.6 7.9 99.1 11.8 9.5 1.5 18.8 3.4 28.2 5.3 4.8 0.9 15.2 7 14.5 2.1-1.6-11-57.2-51.6-65.7-59.5-67.9-62.9-139.6-121.5-209.7-182.1-19.4-16.8-39.1-33.2-58.5-49.9-3.3-2.8-13.3-14.7-18.4-13.5-1.1 0.3-1.2 2-1.5 3.1-3.9 15.8-5.1 32-12.3 47.1-15.8 32.8-71.3 65.2-106.7 63.1-63.1-3.7-90.6-17.3-121.6-72.1-8.4-14.7-7.9-33.9-8.6-50.3-0.3-5.4-0.8-10.8-1.4-16.2-0.2-1.8-24-2.7-26.3-2.1z"/>
		<path id="Shape 42" class="s2" d="m378.9 316.7c0-66.5 57-118.4 123.6-118.4 66.6 0 123.5 57.1 123.5 123.7l-1.7 5c0 66.5-55.2 112.4-121.8 112.4-66.6 0-123.2-46.3-123.2-112.8z"/>
		<path id="Shape 5" class="s3" d="m376.3 298.6l-32.9 11.1c-69 25.9-163.9 72.7-221.5 118.7l-52.7 42.3v376.6c0 6.7 4.8 12.5 11.4 13.7l893.7 165.2c8.6 1.6 16.5-5 16.5-13.7v-367.9c0-4-1.7-7.9-4.8-10.5l-357.8-307.6"/>
		<path id="Shape 9" class="s3" d="m69.2 470.7l124.3 20.7c24.9 4.1 43.2 25.7 43.2 51.1 0 20.4 10.6 39.5 28 50.4l1.4 0.9c16.5 10.2 37.1 11.2 54.4 2.5 17.1-8.5 28-26 28-45.1 0-12.8 11.6-22.3 24.1-19.9l45.7 9.2c40.6 8.1 69.8 43.8 69.8 85.2v9.2c0 19.2 10.8 36.7 27.9 45.2 17.6 8.8 38.3 8.8 55.9 0 17.1-8.5 27.9-26 27.9-45.2 0-27.7 24.6-49 52.1-45l23.6 3.4c20.7 3 36 20.7 36 41.6 0 19.2 10.9 36.7 28 45.2 17.6 8.8 38.3 8.8 55.8 0 17.2-8.5 28-26 28-45.2 0-12.9 11.5-22.7 24.3-20.5l143.2 23.8"/>
		<path id="Shape 21" class="s3" d="m622.9 288.6l4.9 28.4c0 69.5-56.3 125.7-125.7 125.7-69.4 0-125.7-56.2-125.7-125.7-6.1-69.8 93.1-160.8 188.3-104.6"/>
		<path id="Shape 23" class="s3" d="m599.8 118.7c-59.5 9.3-100.5 64.7-92.1 124.3"/>
		<path id="Shape 24" class="s3" d="m158.5 445.5l32.1 26.6"/>
		<path id="Shape 25" class="s3" d="m252.1 442.7l30.7-25.1"/>
		<path id="Shape 26" class="s3" d="m349.8 430.2l39.2 16.7"/>
		<path id="Shape 27" class="s3" d="m416.9 511.2l30.7-30.8"/>
		<path id="Shape 28" class="s3" d="m525.8 508.4l37.7-15.4"/>
		<path id="Shape 29" class="s3" d="m643.1 488.8l30.7 26.5"/>
		<path id="Shape 30" class="s3" d="m683.6 437.1l39.1 18.2"/>
		<path id="Shape 31" class="s3" d="m724.1 534.9l33.5-26.5"/>
		<path id="Shape 32" class="s3" d="m759 597.7l32.1-23.7"/>
		<path id="Shape 33" class="s3" d="m820.5 534.9l29.3 26.5"/>
		<path id="Shape 34" class="s3" d="m499.3 546.1l34.9 27.9"/>
		<path id="Shape 35" class="s3" d="m576.1 555.8l34.9-29.3"/>
		<path id="Shape 36" class="s3" d="m623.6 439.9l36.3-29.3"/>
		<path id="Shape 37" class="s3" d="m284.2 484.6l34.9 29.3"/>
		<path id="Shape 38" class="s3" d="m327.5 391.1l25.1-36.4"/>
		<path id="Shape 39" class="s3" d="m190.6 405l46.1-20.9"/>
		<path id="Shape 16" class="s3" d="m236.7 638.2l3 5.9c15.3 30.7 46.6 50 80.8 50h16.4c25.3 0 49.5-10 67.4-27.9"/>
		<path id="Shape 17" class="s3" d="m571.9 722l1.1 2.2c16.4 32.9 50.1 53.7 86.9 53.7h12c31.2 0 61.7-9.8 87.1-27.9"/>
		<path id="Shape 19" class="s3" d="m348.5 833.8l10.3-6.5c22.4-14 48.4-21.5 74.8-21.5h11.6c19.2 0 38.2 3.3 56.2 9.8 18 6.5 34.7 16.1 49.2 28.5l25.5 21.8"/>
		<path id="Shape 20" class="s4" d="m236.7 694.1l-21.6 52c-3.6 8.6-0.4 18.6 7.7 23.4 8.6 5.2 19.3 5.2 27.9 0 8-4.8 11.3-14.8 7.7-23.4zm-1197.7-510.1"/>
	</g>
</svg>